<svg width="270" height="270" viewBox="0 0 270 270" fill="none" xmlns="http://www.w3.org/2000/svg">
<g clip-path="url(#clip0_1_2)">
<path d="M135 270C209.558 270 270 209.558 270 135C270 60.4416 209.558 0 135 0C60.4416 0 0 60.4416 0 135C0 209.558 60.4416 270 135 270Z" fill="white"/>
<path d="M177.545 121.636H154.818C154.515 119.303 153.894 117.197 152.955 115.318C152.015 113.439 150.773 111.833 149.227 110.5C147.682 109.167 145.848 108.152 143.727 107.455C141.636 106.727 139.318 106.364 136.773 106.364C132.258 106.364 128.364 107.47 125.091 109.682C121.848 111.894 119.348 115.091 117.591 119.273C115.864 123.455 115 128.515 115 134.455C115 140.636 115.879 145.818 117.636 150C119.424 154.152 121.924 157.288 125.136 159.409C128.379 161.5 132.212 162.545 136.636 162.545C139.121 162.545 141.379 162.227 143.409 161.591C145.47 160.955 147.273 160.03 148.818 158.818C150.394 157.576 151.682 156.076 152.682 154.318C153.712 152.53 154.424 150.515 154.818 148.273L177.545 148.409C177.152 152.53 175.955 156.591 173.955 160.591C171.985 164.591 169.273 168.242 165.818 171.545C162.364 174.818 158.152 177.424 153.182 179.364C148.242 181.303 142.576 182.273 136.182 182.273C127.758 182.273 120.212 180.424 113.545 176.727C106.909 173 101.667 167.576 97.8182 160.455C93.9697 153.333 92.0455 144.667 92.0455 134.455C92.0455 124.212 94 115.53 97.9091 108.409C101.818 101.288 107.106 95.8788 113.773 92.1818C120.439 88.4848 127.909 86.6364 136.182 86.6364C141.818 86.6364 147.03 87.4242 151.818 89C156.606 90.5455 160.818 92.8182 164.455 95.8182C168.091 98.7879 171.045 102.439 173.318 106.773C175.591 111.106 177 116.061 177.545 121.636ZM184.24 182.318C180.968 182.318 178.165 181.167 175.831 178.864C173.528 176.561 172.392 173.773 172.422 170.5C172.392 167.288 173.528 164.545 175.831 162.273C178.165 159.97 180.968 158.818 184.24 158.818C187.331 158.818 190.059 159.97 192.422 162.273C194.816 164.545 196.028 167.288 196.059 170.5C196.028 172.682 195.453 174.667 194.331 176.455C193.24 178.242 191.801 179.667 190.013 180.727C188.256 181.788 186.331 182.318 184.24 182.318Z" fill="black"/>
</g>
<defs>
<clipPath id="clip0_1_2">
<rect width="270" height="270" fill="white"/>
</clipPath>
</defs>
</svg>
