<svg width="270" height="270" viewBox="0 0 270 270" fill="none" xmlns="http://www.w3.org/2000/svg">
<g clip-path="url(#clip0_1_2)">
<path d="M135 270C209.558 270 270 209.558 270 135C270 60.4416 209.558 0 135 0C60.4416 0 0 60.4416 0 135C0 209.558 60.4416 270 135 270Z" fill="white"/>
<path d="M134.364 115.818C134.061 112.485 132.712 109.894 130.318 108.045C127.955 106.167 124.576 105.227 120.182 105.227C117.273 105.227 114.848 105.606 112.909 106.364C110.97 107.121 109.515 108.167 108.545 109.5C107.576 110.803 107.076 112.303 107.045 114C106.985 115.394 107.258 116.621 107.864 117.682C108.5 118.742 109.409 119.682 110.591 120.5C111.803 121.288 113.258 121.985 114.955 122.591C116.652 123.197 118.561 123.727 120.682 124.182L128.682 126C133.288 127 137.348 128.333 140.864 130C144.409 131.667 147.379 133.652 149.773 135.955C152.197 138.258 154.03 140.909 155.273 143.909C156.515 146.909 157.152 150.273 157.182 154C157.152 159.879 155.667 164.924 152.727 169.136C149.788 173.348 145.561 176.576 140.045 178.818C134.561 181.061 127.939 182.182 120.182 182.182C112.394 182.182 105.606 181.015 99.8182 178.682C94.0303 176.348 89.5303 172.803 86.3182 168.045C83.1061 163.288 81.4545 157.273 81.3636 150H102.909C103.091 153 103.894 155.5 105.318 157.5C106.742 159.5 108.697 161.015 111.182 162.045C113.697 163.076 116.606 163.591 119.909 163.591C122.939 163.591 125.515 163.182 127.636 162.364C129.788 161.545 131.439 160.409 132.591 158.955C133.742 157.5 134.333 155.833 134.364 153.955C134.333 152.197 133.788 150.697 132.727 149.455C131.667 148.182 130.03 147.091 127.818 146.182C125.636 145.242 122.848 144.379 119.455 143.591L109.727 141.318C101.667 139.47 95.3182 136.485 90.6818 132.364C86.0455 128.212 83.7424 122.606 83.7727 115.545C83.7424 109.788 85.2879 104.742 88.4091 100.409C91.5303 96.0758 95.8485 92.697 101.364 90.2727C106.879 87.8485 113.167 86.6364 120.227 86.6364C127.439 86.6364 133.697 87.8636 139 90.3182C144.333 92.7424 148.47 96.1515 151.409 100.545C154.348 104.939 155.848 110.03 155.909 115.818H134.364ZM174.965 182.318C171.693 182.318 168.89 181.167 166.556 178.864C164.253 176.561 163.117 173.773 163.147 170.5C163.117 167.288 164.253 164.545 166.556 162.273C168.89 159.97 171.693 158.818 174.965 158.818C178.056 158.818 180.784 159.97 183.147 162.273C185.541 164.545 186.753 167.288 186.784 170.5C186.753 172.682 186.178 174.667 185.056 176.455C183.965 178.242 182.526 179.667 180.738 180.727C178.981 181.788 177.056 182.318 174.965 182.318Z" fill="black"/>
</g>
<defs>
<clipPath id="clip0_1_2">
<rect width="270" height="270" fill="white"/>
</clipPath>
</defs>
</svg>
